<svg width="164" height="48" viewBox="0 0 164 48" fill="none" xmlns="http://www.w3.org/2000/svg">
<g clip-path="url(#clip0_3_4)">
<path d="M37.992 31.342C38.139 31.7129 38.1718 32.1193 38.086 32.509L37.021 35.799C36.9867 35.9658 36.9956 36.1387 37.0468 36.3011C37.098 36.4636 37.1899 36.6103 37.3137 36.7273C37.4375 36.8443 37.5891 36.9277 37.7542 36.9697C37.9193 37.0116 38.0924 37.0107 38.257 36.967L41.67 35.969C42.0377 35.8961 42.4185 35.9279 42.769 36.061C44.9044 37.0582 47.3234 37.2692 49.5991 36.6567C51.8749 36.0442 53.8613 34.6477 55.2077 32.7134C56.5541 30.7791 57.1741 28.4314 56.9583 26.0845C56.7425 23.7377 55.7047 21.5425 54.0281 19.8862C52.3514 18.2299 50.1437 17.219 47.7944 17.0319C45.4451 16.8448 43.1051 17.4934 41.1874 18.8633C39.2697 20.2333 37.8975 22.2365 37.3129 24.5196C36.7283 26.8027 36.9688 29.219 37.992 31.342Z" stroke="#2DA86D" stroke-width="3" stroke-linecap="round" stroke-linejoin="round"/>
<path d="M44.09 24C44.3251 23.3317 44.7891 22.7681 45.4 22.4091C46.0108 22.0502 46.7289 21.9189 47.4272 22.0387C48.1255 22.1585 48.7588 22.5215 49.2151 23.0635C49.6713 23.6055 49.9211 24.2915 49.92 25C49.92 27 46.92 28 46.92 28" stroke="#2DA86D" stroke-width="3" stroke-linecap="round" stroke-linejoin="round"/>
<path d="M47 32H47.01" stroke="#2DA86D" stroke-width="3" stroke-linecap="round" stroke-linejoin="round"/>
</g>
<path d="M25.1475 37V25.52C25.1475 24.225 24.8267 23.2158 24.185 22.4925C23.5433 21.7575 22.6742 21.39 21.5775 21.39C20.9008 21.39 20.2942 21.5475 19.7575 21.8625C19.2208 22.1658 18.795 22.6208 18.48 23.2275C18.165 23.8225 18.0075 24.5342 18.0075 25.3625L16.135 24.26C16.1233 22.9533 16.415 21.8042 17.01 20.8125C17.6167 19.8092 18.4333 19.0275 19.46 18.4675C20.4867 17.9075 21.63 17.6275 22.89 17.6275C24.9783 17.6275 26.5767 18.2575 27.685 19.5175C28.805 20.7658 29.365 22.4108 29.365 24.4525V37H25.1475ZM2.415 37V18.1H6.1425V23.9625H6.6675V37H2.415ZM13.8075 37V25.5725C13.8075 24.2542 13.4867 23.2275 12.845 22.4925C12.2033 21.7575 11.3283 21.39 10.22 21.39C9.14667 21.39 8.28333 21.7575 7.63 22.4925C6.98833 23.2275 6.6675 24.1842 6.6675 25.3625L4.7775 24.1025C4.7775 22.8775 5.08083 21.775 5.6875 20.795C6.29417 19.815 7.11083 19.045 8.1375 18.485C9.17583 17.9133 10.3367 17.6275 11.62 17.6275C13.0317 17.6275 14.21 17.9308 15.155 18.5375C16.1117 19.1325 16.8233 19.9492 17.29 20.9875C17.7683 22.0142 18.0075 23.175 18.0075 24.47V37H13.8075Z" fill="white"/>
<path d="M76.5225 37V27.9C76.5225 27.305 76.4817 26.6458 76.4 25.9225C76.3183 25.1992 76.1258 24.505 75.8225 23.84C75.5308 23.1633 75.0875 22.6092 74.4925 22.1775C73.9092 21.7458 73.1158 21.53 72.1125 21.53C71.5758 21.53 71.045 21.6175 70.52 21.7925C69.995 21.9675 69.5167 22.2708 69.085 22.7025C68.665 23.1225 68.3267 23.7058 68.07 24.4525C67.8133 25.1875 67.685 26.1325 67.685 27.2875L65.1825 26.22C65.1825 24.61 65.4917 23.1517 66.11 21.845C66.74 20.5383 67.6617 19.5 68.875 18.73C70.0883 17.9483 71.5817 17.5575 73.355 17.5575C74.755 17.5575 75.91 17.7908 76.82 18.2575C77.73 18.7242 78.4533 19.3192 78.99 20.0425C79.5267 20.7658 79.9233 21.5358 80.18 22.3525C80.4367 23.1692 80.6 23.945 80.67 24.68C80.7517 25.4033 80.7925 25.9925 80.7925 26.4475V37H76.5225ZM63.415 37V18.1H67.1775V23.9625H67.685V37H63.415ZM90.6442 37.525C89.2792 37.525 88.1242 37.2683 87.1792 36.755C86.2342 36.23 85.5167 35.5358 85.0267 34.6725C84.5483 33.8092 84.3092 32.8583 84.3092 31.82C84.3092 30.91 84.4608 30.0933 84.7642 29.37C85.0675 28.635 85.5342 28.005 86.1642 27.48C86.7942 26.9433 87.6108 26.5058 88.6142 26.1675C89.3725 25.9225 90.2592 25.7008 91.2742 25.5025C92.3008 25.3042 93.4092 25.1233 94.5992 24.96C95.8008 24.785 97.055 24.5983 98.3617 24.4L96.8567 25.2575C96.8683 23.9508 96.5767 22.9883 95.9817 22.37C95.3867 21.7517 94.3833 21.4425 92.9717 21.4425C92.12 21.4425 91.2975 21.6408 90.5042 22.0375C89.7108 22.4342 89.1567 23.1167 88.8417 24.085L84.9917 22.8775C85.4583 21.2792 86.345 19.9958 87.6517 19.0275C88.97 18.0592 90.7433 17.575 92.9717 17.575C94.6517 17.575 96.1275 17.8492 97.3992 18.3975C98.6825 18.9458 99.6333 19.8442 100.252 21.0925C100.59 21.7575 100.794 22.44 100.864 23.14C100.934 23.8283 100.969 24.5808 100.969 25.3975V37H97.2767V32.905L97.8892 33.57C97.0375 34.935 96.04 35.9383 94.8967 36.58C93.765 37.21 92.3475 37.525 90.6442 37.525ZM91.4842 34.165C92.4408 34.165 93.2575 33.9958 93.9342 33.6575C94.6108 33.3192 95.1475 32.905 95.5442 32.415C95.9525 31.925 96.2267 31.4642 96.3667 31.0325C96.5883 30.4958 96.7108 29.8833 96.7342 29.195C96.7692 28.495 96.7867 27.9292 96.7867 27.4975L98.0817 27.8825C96.81 28.0808 95.7192 28.2558 94.8092 28.4075C93.8992 28.5592 93.1175 28.705 92.4642 28.845C91.8108 28.9733 91.2333 29.1192 90.7317 29.2825C90.2417 29.4575 89.8275 29.6617 89.4892 29.895C89.1508 30.1283 88.8883 30.3967 88.7017 30.7C88.5267 31.0033 88.4392 31.3592 88.4392 31.7675C88.4392 32.2342 88.5558 32.6483 88.7892 33.01C89.0225 33.36 89.3608 33.64 89.8042 33.85C90.2592 34.06 90.8192 34.165 91.4842 34.165ZM118.598 37V27.9C118.598 27.305 118.557 26.6458 118.475 25.9225C118.394 25.1992 118.201 24.505 117.898 23.84C117.606 23.1633 117.163 22.6092 116.568 22.1775C115.984 21.7458 115.191 21.53 114.188 21.53C113.651 21.53 113.12 21.6175 112.595 21.7925C112.07 21.9675 111.592 22.2708 111.16 22.7025C110.74 23.1225 110.402 23.7058 110.145 24.4525C109.889 25.1875 109.76 26.1325 109.76 27.2875L107.258 26.22C107.258 24.61 107.567 23.1517 108.185 21.845C108.815 20.5383 109.737 19.5 110.95 18.73C112.164 17.9483 113.657 17.5575 115.43 17.5575C116.83 17.5575 117.985 17.7908 118.895 18.2575C119.805 18.7242 120.529 19.3192 121.065 20.0425C121.602 20.7658 121.999 21.5358 122.255 22.3525C122.512 23.1692 122.675 23.945 122.745 24.68C122.827 25.4033 122.868 25.9925 122.868 26.4475V37H118.598ZM105.49 37V18.1H109.253V23.9625H109.76V37H105.49ZM129.236 45.4L132.876 35.4075L132.946 38.3475L124.703 18.1H129.096L134.941 33.08H133.821L139.508 18.1H143.726L133.191 45.4H129.236ZM150.937 37.525C149.572 37.525 148.417 37.2683 147.472 36.755C146.527 36.23 145.81 35.5358 145.32 34.6725C144.841 33.8092 144.602 32.8583 144.602 31.82C144.602 30.91 144.754 30.0933 145.057 29.37C145.36 28.635 145.827 28.005 146.457 27.48C147.087 26.9433 147.904 26.5058 148.907 26.1675C149.665 25.9225 150.552 25.7008 151.567 25.5025C152.594 25.3042 153.702 25.1233 154.892 24.96C156.094 24.785 157.348 24.5983 158.655 24.4L157.15 25.2575C157.161 23.9508 156.87 22.9883 156.275 22.37C155.68 21.7517 154.676 21.4425 153.265 21.4425C152.413 21.4425 151.59 21.6408 150.797 22.0375C150.004 22.4342 149.45 23.1167 149.135 24.085L145.285 22.8775C145.751 21.2792 146.638 19.9958 147.945 19.0275C149.263 18.0592 151.036 17.575 153.265 17.575C154.945 17.575 156.42 17.8492 157.692 18.3975C158.975 18.9458 159.926 19.8442 160.545 21.0925C160.883 21.7575 161.087 22.44 161.157 23.14C161.227 23.8283 161.262 24.5808 161.262 25.3975V37H157.57V32.905L158.182 33.57C157.33 34.935 156.333 35.9383 155.19 36.58C154.058 37.21 152.64 37.525 150.937 37.525ZM151.777 34.165C152.734 34.165 153.55 33.9958 154.227 33.6575C154.904 33.3192 155.44 32.905 155.837 32.415C156.245 31.925 156.52 31.4642 156.66 31.0325C156.881 30.4958 157.004 29.8833 157.027 29.195C157.062 28.495 157.08 27.9292 157.08 27.4975L158.375 27.8825C157.103 28.0808 156.012 28.2558 155.102 28.4075C154.192 28.5592 153.41 28.705 152.757 28.845C152.104 28.9733 151.526 29.1192 151.025 29.2825C150.535 29.4575 150.12 29.6617 149.782 29.895C149.444 30.1283 149.181 30.3967 148.995 30.7C148.82 31.0033 148.732 31.3592 148.732 31.7675C148.732 32.2342 148.849 32.6483 149.082 33.01C149.315 33.36 149.654 33.64 150.097 33.85C150.552 34.06 151.112 34.165 151.777 34.165Z" fill="white"/>
<defs>
<clipPath id="clip0_3_4">
<rect width="24" height="24" fill="white" transform="translate(35 15)"/>
</clipPath>
</defs>
</svg>
